<svg id="Capa_1" data-name="Capa 1" xmlns="http://www.w3.org/2000/svg" viewBox="0 0 474.3 111.43">
  <defs>
    <style>
      .cls-1 {
        fill: #ffffff;
      }
    </style>
  </defs>
  <g>
    <path class="cls-1" d="M111.76,335.47q11.64-3.12,16.68.36t3.48,14.28l-10.08,72.24q-4.44.36-8.52.48t-7.14,0a18.61,18.61,0,0,1-4.74-.66q-1.68-.54-1.32-1.62a51.56,51.56,0,0,1-7.44,2.28,35.89,35.89,0,0,1-7.92.84h-5.4a35.22,35.22,0,0,1-9.24-1.14,25.65,25.65,0,0,1-7.26-3.12,13.55,13.55,0,0,1-4.56-4.62,8.71,8.71,0,0,1-1.14-5.52l5.52-40.92a10.33,10.33,0,0,1,2.7-5.64,22.2,22.2,0,0,1,5.94-4.62A34.37,34.37,0,0,1,79.48,355a39.45,39.45,0,0,1,9.6-1.14H94.6a33.28,33.28,0,0,1,7.68.84,27.44,27.44,0,0,1,6.6,2.52ZM107.08,371a4,4,0,0,0-2-3.54,9.46,9.46,0,0,0-5.52-1.5H93.4a11.69,11.69,0,0,0-5.88,1.5c-1.76,1-2.68,2.18-2.76,3.54l-5.28,35.76c-.16,1.37.5,2.48,2,3.36a10.93,10.93,0,0,0,5.7,1.32H93a12.57,12.57,0,0,0,6.06-1.32,4.85,4.85,0,0,0,2.82-3.36Z" transform="translate(-57.09 -333.48)"/>
    <path class="cls-1" d="M181.48,353.83a34.05,34.05,0,0,1,9.06,1.14,25.14,25.14,0,0,1,7.14,3.12,14,14,0,0,1,4.5,4.62,9,9,0,0,1,1.14,5.64l-5.76,40.92a10.37,10.37,0,0,1-2.64,5.52,21.36,21.36,0,0,1-5.82,4.62,33.18,33.18,0,0,1-8,3.12,37,37,0,0,1-9.24,1.14H153.4a35.22,35.22,0,0,1-9.24-1.14,25.53,25.53,0,0,1-7.26-3.12,13.55,13.55,0,0,1-4.56-4.62,8.65,8.65,0,0,1-1.14-5.52l5.52-40.92a10.33,10.33,0,0,1,2.7-5.64,22.2,22.2,0,0,1,5.94-4.62,34.37,34.37,0,0,1,8.16-3.12,39.45,39.45,0,0,1,9.6-1.14ZM181.12,371a4,4,0,0,0-2-3.54,9.49,9.49,0,0,0-5.52-1.5h-6.12a11.67,11.67,0,0,0-5.88,1.5c-1.76,1-2.68,2.18-2.76,3.54l-5.28,35.76c-.17,1.37.5,2.48,2,3.36a10.93,10.93,0,0,0,5.7,1.32h5.88a12.57,12.57,0,0,0,6.06-1.32,4.87,4.87,0,0,0,2.82-3.36Z" transform="translate(-57.09 -333.48)"/>
    <path class="cls-1" d="M255.51,353.83a34.05,34.05,0,0,1,9.06,1.14,25.14,25.14,0,0,1,7.14,3.12,13.8,13.8,0,0,1,4.5,4.62,9,9,0,0,1,1.14,5.64l-5.76,40.92a10.42,10.42,0,0,1-2.63,5.52,21.57,21.57,0,0,1-5.83,4.62,33.18,33.18,0,0,1-8,3.12,37,37,0,0,1-9.23,1.14H227.44a35.24,35.24,0,0,1-9.25-1.14,25.46,25.46,0,0,1-7.25-3.12,13.46,13.46,0,0,1-4.56-4.62,8.66,8.66,0,0,1-1.15-5.52l5.52-40.92a10.35,10.35,0,0,1,2.71-5.64,21.89,21.89,0,0,1,5.94-4.62,34.13,34.13,0,0,1,8.15-3.12,39.45,39.45,0,0,1,9.6-1.14ZM255.15,371a4,4,0,0,0-2-3.54,9.46,9.46,0,0,0-5.52-1.5h-6.12a11.69,11.69,0,0,0-5.88,1.5c-1.76,1-2.68,2.18-2.76,3.54l-5.28,35.76c-.16,1.37.5,2.48,2,3.36a10.93,10.93,0,0,0,5.7,1.32h5.88a12.57,12.57,0,0,0,6.06-1.32,4.85,4.85,0,0,0,2.82-3.36Z" transform="translate(-57.09 -333.48)"/>
    <path class="cls-1" d="M329.55,353.83a34.05,34.05,0,0,1,9.06,1.14,25.14,25.14,0,0,1,7.14,3.12,13.8,13.8,0,0,1,4.5,4.62,9,9,0,0,1,1.14,5.64l-5.76,40.92a10.37,10.37,0,0,1-2.64,5.52,21.36,21.36,0,0,1-5.82,4.62,33.18,33.18,0,0,1-8,3.12,37,37,0,0,1-9.24,1.14h-6a33.51,33.51,0,0,1-7.74-.84,24.47,24.47,0,0,1-6.18-2.28l-3.12,21.36a16.55,16.55,0,0,1-8.1,2A13.67,13.67,0,0,1,282,442a11.8,11.8,0,0,1-4.5-5,12.47,12.47,0,0,1-1.08-7.14L287.07,355q5-.72,9.12-1a46.78,46.78,0,0,1,7-.06,12.15,12.15,0,0,1,4.38,1,2.2,2.2,0,0,1,1.38,2.22A34.46,34.46,0,0,1,324,353.83ZM329.19,371a4,4,0,0,0-2-3.54,9.46,9.46,0,0,0-5.52-1.5h-5.76a12.17,12.17,0,0,0-6.12,1.5c-1.76,1-2.68,2.18-2.76,3.54l-5.16,35.76a3.35,3.35,0,0,0,1.92,3.36,10.61,10.61,0,0,0,5.64,1.32h5.76a12.57,12.57,0,0,0,6.06-1.32,4.85,4.85,0,0,0,2.82-3.36Z" transform="translate(-57.09 -333.48)"/>
    <path class="cls-1" d="M363.63,335.47a17.52,17.52,0,0,1,8.46-2,12,12,0,0,1,6.78,2.22,12.29,12.29,0,0,1,4.14,5.7,16.74,16.74,0,0,1,.66,8.46l-10.08,72.6a18.7,18.7,0,0,1-8.1,2.64,11.71,11.71,0,0,1-6.84-1.5,11.12,11.12,0,0,1-4.5-5.28,15.6,15.6,0,0,1-.84-8.58Z" transform="translate(-57.09 -333.48)"/>
    <path class="cls-1" d="M449.67,422.35q-22.92,3.12-21.84-1.8a50.78,50.78,0,0,1-7.5,2.28,35,35,0,0,1-7.62.84h-7.44a35.22,35.22,0,0,1-9.24-1.14,25.65,25.65,0,0,1-7.26-3.12,13.55,13.55,0,0,1-4.56-4.62,8.71,8.71,0,0,1-1.14-5.52l2.4-15.72a11.7,11.7,0,0,1,2.76-5.7,21.08,21.08,0,0,1,5.76-4.68,32.47,32.47,0,0,1,7.92-3.12,37,37,0,0,1,9.24-1.14h14.28a11.83,11.83,0,0,0,6-1.5c1.76-1,2.72-2.17,2.88-3.54l.48-2.88a3.72,3.72,0,0,0-1.86-3.54,9.41,9.41,0,0,0-5.58-1.5h-5.88a11.69,11.69,0,0,0-5.88,1.5c-1.76,1-2.72,2.18-2.88,3.54l-.48.48h-21.6l.24-3.12a10.33,10.33,0,0,1,2.7-5.64,22.2,22.2,0,0,1,5.94-4.62,34.37,34.37,0,0,1,8.16-3.12,39.45,39.45,0,0,1,9.6-1.14h18a35.22,35.22,0,0,1,9.24,1.14,24.17,24.17,0,0,1,7.14,3.12,14,14,0,0,1,4.44,4.62,8.42,8.42,0,0,1,1,5.64Zm-17.52-34.2a29.4,29.4,0,0,1-7,2.1,46.36,46.36,0,0,1-8,.66h-1.56a11.28,11.28,0,0,0-5.88,1.5,5.86,5.86,0,0,0-3,3.54l-1.32,10.8c-.16,1.37.5,2.48,2,3.36a10.93,10.93,0,0,0,5.7,1.32H421a12.38,12.38,0,0,0,5.88-1.32,4.85,4.85,0,0,0,2.88-3.36Z" transform="translate(-57.09 -333.48)"/>
    <path class="cls-1" d="M531.39,355l-37.08,78.36a13.14,13.14,0,0,1-3.78,4.74,26,26,0,0,1-6,3.6,37.41,37.41,0,0,1-7.5,2.34,41.55,41.55,0,0,1-8.4.84,18.8,18.8,0,0,1-6.42-1,13.44,13.44,0,0,1-4.68-2.76,8.35,8.35,0,0,1-2.46-4,7.31,7.31,0,0,1,.36-4.68h10.44a12,12,0,0,0,5.34-1.14,7.07,7.07,0,0,0,3.3-2.94l2.16-4.68L463.35,355h20.88l7,37.56L509.07,355Z" transform="translate(-57.09 -333.48)"/>
  </g>
</svg>
